{"glyphs":{"+":{"ha":494,"x_min":27,"x_max":467,"o":"m 168 204 l 168 345 l 27 345 l 27 503 l 168 503 l 168 644 l 326 644 l 326 503 l 467 503 l 467 345 l 326 345 l 326 204 l 168 204 z "},"-":{"ha":432,"x_min":41,"x_max":391,"o":"m 41 345 l 41 503 l 391 503 l 391 345 l 41 345 z "},"|":{"ha":300,"x_min":42,"x_max":258,"o":"m 42 -57 l 42 1324 l 258 1324 l 258 -57 l 42 -57 z "}," ":{"ha":326,"x_min":0,"x_max":0,"o":""},"W":{"ha":989,"x_min":18,"x_max":970,"o":"m 146 0 l 18 1194 l 252 1194 l 317 440 l 385 1194 l 607 1194 l 671 440 l 734 1194 l 970 1194 l 840 0 l 554 0 l 494 574 l 437 0 l 146 0 z "},"E":{"ha":572,"x_min":53,"x_max":546,"o":"m 53 0 l 53 1194 l 530 1194 l 530 963 l 296 963 l 296 730 l 521 730 l 521 506 l 296 506 l 296 233 l 546 233 l 546 0 l 53 0 z "},"L":{"ha":552,"x_min":53,"x_max":537,"o":"m 53 0 l 53 1194 l 292 1194 l 292 203 l 537 203 l 537 0 l 53 0 z "},"C":{"ha":659,"x_min":43,"x_max":632,"o":"m 331 -11 q 122 70 201 -11 q 43 296 43 151 l 43 846 q 112 1112 43 1020 q 336 1204 181 1204 q 487 1173 421 1204 q 591 1080 553 1142 q 629 924 629 1018 l 629 718 l 392 718 l 392 894 q 378 966 392 947 q 336 985 365 985 q 292 961 303 985 q 280 897 280 937 l 280 299 q 295 229 280 250 q 336 209 309 209 q 379 234 367 209 q 392 299 392 259 l 392 514 l 632 514 l 632 288 q 553 60 632 131 q 331 -11 473 -11 z "},"O":{"ha":675,"x_min":43,"x_max":632,"o":"m 338 -11 q 119 76 195 -11 q 43 326 43 162 l 43 892 q 118 1125 43 1046 q 338 1204 193 1204 q 557 1125 482 1204 q 632 892 632 1046 l 632 326 q 556 76 632 162 q 338 -11 481 -11 m 340 209 q 394 314 394 209 l 394 897 q 341 985 394 985 q 281 895 281 985 l 281 313 q 295 233 281 257 q 340 209 309 209 z "},"M":{"ha":1036,"x_min":53,"x_max":983,"o":"m 53 0 l 53 1194 l 416 1194 l 517 466 l 616 1194 l 983 1194 l 983 0 l 765 0 l 765 860 l 628 0 l 414 0 l 269 860 l 269 0 l 53 0 z "},"S":{"ha":641,"x_min":28,"x_max":614,"o":"m 336 -11 q 101 71 173 -11 q 28 330 28 152 l 28 446 l 264 446 l 264 297 q 277 232 264 256 q 321 209 290 209 q 366 228 353 209 q 378 290 378 247 q 368 382 378 345 q 330 453 357 419 q 256 531 303 486 l 149 633 q 28 892 28 746 q 99 1124 28 1044 q 304 1204 170 1204 q 537 1117 469 1204 q 606 851 606 1029 l 363 851 l 363 933 q 350 971 363 958 q 312 985 336 985 q 270 969 283 985 q 257 928 257 953 q 271 873 257 903 q 324 806 284 844 l 462 674 q 538 591 503 635 q 593 489 572 547 q 614 348 614 431 q 552 84 614 180 q 336 -11 490 -11 z "},"T":{"ha":549,"x_min":14,"x_max":536,"o":"m 155 0 l 155 964 l 14 964 l 14 1194 l 536 1194 l 536 964 l 394 964 l 394 0 l 155 0 z "},"R":{"ha":662,"x_min":53,"x_max":636,"o":"m 53 0 l 53 1194 l 419 1194 q 557 1152 511 1194 q 620 1035 604 1110 q 636 859 636 960 q 611 703 636 762 q 518 623 587 645 q 597 567 574 611 q 620 452 620 522 l 620 0 l 385 0 l 385 467 q 363 532 385 519 q 294 545 342 545 l 294 0 l 53 0 m 296 751 l 353 751 q 403 859 403 751 q 392 951 403 929 q 351 972 381 972 l 296 972 l 296 751 z "},"A":{"ha":674,"x_min":20,"x_max":654,"o":"m 20 0 l 136 1194 l 541 1194 l 654 0 l 428 0 l 411 193 l 267 193 l 252 0 l 20 0 m 284 383 l 393 383 l 340 990 l 330 990 l 284 383 z "},"N":{"ha":692,"x_min":53,"x_max":639,"o":"m 53 0 l 53 1194 l 298 1194 l 408 622 l 408 1194 l 639 1194 l 639 0 l 406 0 l 286 597 l 286 0 l 53 0 z "},"G":{"ha":673,"x_min":43,"x_max":635,"o":"m 299 -11 q 43 355 43 -11 l 43 870 q 336 1204 43 1204 q 522 1156 457 1204 q 610 1015 586 1107 q 635 788 635 922 l 401 788 l 401 894 q 391 959 401 932 q 347 985 380 985 q 293 957 306 985 q 279 896 279 929 l 279 317 q 292 239 279 269 q 341 209 304 209 q 392 239 379 209 q 404 319 404 269 l 404 489 l 340 489 l 340 695 l 632 695 l 632 0 l 536 0 l 496 100 q 299 -11 433 -11 z "},"c":{"ha":682,"x_min":41,"x_max":646,"o":"m 355 -11 q 112 77 184 -11 q 41 334 41 164 l 41 647 q 68 859 41 774 q 163 986 95 944 q 351 1028 231 1028 q 502 998 435 1028 q 608 911 569 968 q 646 770 646 853 l 646 614 l 399 614 l 399 757 q 389 816 399 792 q 345 840 378 840 q 285 755 285 840 l 285 262 q 298 205 285 231 q 343 179 312 179 q 388 204 375 179 q 400 264 400 230 l 400 435 l 646 435 l 646 257 q 609 113 646 173 q 505 21 571 53 q 355 -11 439 -11 z "},"r":{"ha":481,"x_min":49,"x_max":471,"o":"m 49 0 l 49 1017 l 296 1017 l 296 904 q 358 996 313 963 q 471 1029 403 1029 l 471 827 q 399 820 441 827 q 327 803 358 814 q 296 778 296 791 l 296 0 l 49 0 z "},"o":{"ha":690,"x_min":41,"x_max":649,"o":"m 345 -11 q 41 304 41 -11 l 41 713 q 121 942 41 857 q 345 1028 202 1028 q 568 942 488 1028 q 649 713 649 857 l 649 304 q 345 -11 649 -11 m 345 176 q 388 198 375 176 q 401 254 401 220 l 401 751 q 345 840 401 840 q 288 751 288 840 l 288 254 q 301 198 288 220 q 345 176 314 176 z "},"l":{"ha":345,"x_min":49,"x_max":296,"o":"m 49 0 l 49 1194 l 296 1194 l 296 0 l 49 0 z "},"D":{"ha":685,"x_min":53,"x_max":640,"o":"m 53 0 l 53 1194 l 381 1194 q 575 1122 510 1194 q 640 913 640 1050 l 640 354 q 581 92 640 184 q 373 0 522 0 l 53 0 m 293 211 l 334 211 q 400 275 400 211 l 400 890 q 384 967 400 950 q 319 985 368 985 l 293 985 l 293 211 z "},"w":{"ha":967,"x_min":33,"x_max":935,"o":"m 155 0 l 33 1017 l 241 1017 l 308 471 l 367 1017 l 600 1017 l 669 471 l 726 1017 l 935 1017 l 810 0 l 555 0 l 481 577 l 418 0 l 155 0 z "},"n":{"ha":692,"x_min":49,"x_max":646,"o":"m 49 0 l 49 1017 l 292 1017 l 292 888 q 342 987 305 946 q 445 1028 379 1028 q 598 963 551 1028 q 646 785 646 898 l 646 0 l 407 0 l 407 760 q 395 815 407 789 q 353 840 382 840 q 312 821 325 840 q 295 773 298 802 q 292 715 292 744 l 292 0 l 49 0 z "}}}
